<svg width="500" height="500" viewBox="0 0 500 500" fill="none" xmlns="http://www.w3.org/2000/svg">
<circle cx="250" cy="250" r="250" fill="#F4E6C2"/>
<line x1="121" y1="358" x2="166" y2="358" stroke="#E1C2BD" stroke-width="30" stroke-linecap="round"/>
<line x1="334" y1="358" x2="379" y2="358" stroke="#E1C2BD" stroke-width="30" stroke-linecap="round"/>
<circle cx="143.5" cy="215.5" r="83" fill="black" fill-opacity="0.1" stroke="#C3B89B" stroke-width="15"/>
<circle cx="356.441" cy="215.5" r="83" fill="black" fill-opacity="0.1" stroke="#C3B89B" stroke-width="15"/>
<path d="M188 181C188 186.523 183.523 191 178 191C172.477 191 168 186.523 168 181C168 175.477 172.477 171 178 171C183.523 171 188 175.477 188 181Z" fill="#110000" fill-opacity="0.5"/>
<circle cx="108" cy="181" r="10" fill="#110000" fill-opacity="0.5"/>
<path d="M153 216C153 221.523 148.523 226 143 226C137.477 226 133 221.523 133 216C133 210.477 137.477 206 143 206C148.523 206 153 210.477 153 216Z" fill="#110000" fill-opacity="0.5"/>
<path d="M188 250C188 255.523 183.523 260 178 260C172.477 260 168 255.523 168 250C168 244.477 172.477 240 178 240C183.523 240 188 244.477 188 250Z" fill="#110000" fill-opacity="0.5"/>
<circle cx="108" cy="250" r="10" fill="#110000" fill-opacity="0.5"/>
<path d="M401 181C401 186.523 396.523 191 391 191C385.477 191 381 186.523 381 181C381 175.477 385.477 171 391 171C396.523 171 401 175.477 401 181Z" fill="#110000" fill-opacity="0.5"/>
<circle cx="321" cy="181" r="10" fill="#110000" fill-opacity="0.5"/>
<path d="M366 216C366 221.523 361.523 226 356 226C350.477 226 346 221.523 346 216C346 210.477 350.477 206 356 206C361.523 206 366 210.477 366 216Z" fill="#110000" fill-opacity="0.5"/>
<path d="M401 250C401 255.523 396.523 260 391 260C385.477 260 381 255.523 381 250C381 244.477 385.477 240 391 240C396.523 240 401 244.477 401 250Z" fill="#110000" fill-opacity="0.5"/>
<circle cx="321" cy="250" r="10" fill="#110000" fill-opacity="0.5"/>
</svg>
