<svg width="1103" height="1100" viewBox="0 0 1103 1100" fill="none" xmlns="http://www.w3.org/2000/svg">
<circle cx="853" cy="850" r="250" fill="#D7D7E6"/>
<line x1="724" y1="958" x2="769" y2="958" stroke="#E1C2BD" stroke-width="30" stroke-linecap="round"/>
<line x1="937" y1="958" x2="982" y2="958" stroke="#E1C2BD" stroke-width="30" stroke-linecap="round"/>
<line x1="960.004" y1="744" x2="960.004" y2="770.079" stroke="#ACACB8" stroke-width="25"/>
<line x1="891" y1="766.272" x2="1029" y2="766.272" stroke="#ACACB8" stroke-width="25"/>
<path d="M999.661 787.465C991.874 810.646 960.326 863.202 896.433 887.976" stroke="#ACACB8" stroke-width="25"/>
<path d="M915.992 784.205C923.78 807.386 955.328 859.942 1019.22 884.717" stroke="#ACACB8" stroke-width="25"/>
<path d="M684 889.5L714 836M809 889.5L779 836M779 836L746.5 743L714 836M779 836H746.5H714" stroke="#ACACB8" stroke-width="25" stroke-linecap="round" stroke-linejoin="round"/>
<circle cx="253" cy="850" r="250" fill="#F4E6C2"/>
<line x1="124" y1="958" x2="169" y2="958" stroke="#E1C2BD" stroke-width="30" stroke-linecap="round"/>
<line x1="337" y1="958" x2="382" y2="958" stroke="#E1C2BD" stroke-width="30" stroke-linecap="round"/>
<circle cx="146.5" cy="815.5" r="83" fill="black" fill-opacity="0.1" stroke="#C3B89B" stroke-width="15"/>
<circle cx="359.441" cy="815.5" r="83" fill="black" fill-opacity="0.1" stroke="#C3B89B" stroke-width="15"/>
<path d="M191 781C191 786.523 186.523 791 181 791C175.477 791 171 786.523 171 781C171 775.477 175.477 771 181 771C186.523 771 191 775.477 191 781Z" fill="#110000" fill-opacity="0.5"/>
<circle cx="111" cy="781" r="10" fill="#110000" fill-opacity="0.5"/>
<path d="M156 816C156 821.523 151.523 826 146 826C140.477 826 136 821.523 136 816C136 810.477 140.477 806 146 806C151.523 806 156 810.477 156 816Z" fill="#110000" fill-opacity="0.5"/>
<path d="M191 850C191 855.523 186.523 860 181 860C175.477 860 171 855.523 171 850C171 844.477 175.477 840 181 840C186.523 840 191 844.477 191 850Z" fill="#110000" fill-opacity="0.5"/>
<circle cx="111" cy="850" r="10" fill="#110000" fill-opacity="0.5"/>
<path d="M404 781C404 786.523 399.523 791 394 791C388.477 791 384 786.523 384 781C384 775.477 388.477 771 394 771C399.523 771 404 775.477 404 781Z" fill="#110000" fill-opacity="0.5"/>
<circle cx="324" cy="781" r="10" fill="#110000" fill-opacity="0.5"/>
<path d="M369 816C369 821.523 364.523 826 359 826C353.477 826 349 821.523 349 816C349 810.477 353.477 806 359 806C364.523 806 369 810.477 369 816Z" fill="#110000" fill-opacity="0.5"/>
<path d="M404 850C404 855.523 399.523 860 394 860C388.477 860 384 855.523 384 850C384 844.477 388.477 840 394 840C399.523 840 404 844.477 404 850Z" fill="#110000" fill-opacity="0.5"/>
<circle cx="324" cy="850" r="10" fill="#110000" fill-opacity="0.5"/>
<circle cx="853" cy="250" r="250" fill="#D2DFBC"/>
<line x1="724" y1="358" x2="769" y2="358" stroke="#E1C2BD" stroke-width="30" stroke-linecap="round"/>
<line x1="937" y1="358" x2="982" y2="358" stroke="#E1C2BD" stroke-width="30" stroke-linecap="round"/>
<circle cx="959.441" cy="215.5" r="83" fill="#D0E8A7" stroke="#A8B296" stroke-width="15"/>
<circle cx="746.5" cy="215.5" r="83" fill="#D0E8A7" stroke="#A8B296" stroke-width="15"/>
<circle cx="958.5" cy="215.5" r="62.5" fill="#B1C88A"/>
<circle cx="745.5" cy="215.5" r="62.5" fill="#B1C88A"/>
<path d="M745 219L759.723 244.5H730.278L745 219Z" fill="#D0E7A7"/>
<path d="M766 184L780.723 209.5H751.278L766 184Z" fill="#D0E7A7"/>
<path d="M725 184L739.723 209.5H710.278L725 184Z" fill="#D0E7A7"/>
<path d="M958 219L972.723 244.5H943.278L958 219Z" fill="#D0E7A7"/>
<path d="M979 184L993.723 209.5H964.278L979 184Z" fill="#D0E7A7"/>
<path d="M938 184L952.723 209.5H923.278L938 184Z" fill="#D0E7A7"/>
<circle cx="250" cy="250" r="250" fill="#D5E9E7"/>
<line x1="121" y1="358" x2="166" y2="358" stroke="#E1C2BD" stroke-width="30" stroke-linecap="round"/>
<line x1="334" y1="358" x2="379" y2="358" stroke="#E1C2BD" stroke-width="30" stroke-linecap="round"/>
<circle cx="143.5" cy="215.5" r="78" stroke="#A0AFAD" stroke-width="25"/>
<circle cx="356.441" cy="215.5" r="78" stroke="#A0AFAD" stroke-width="25"/>
<line x1="223.353" y1="214.712" x2="276.588" y2="214.712" stroke="#A0AFAD" stroke-width="25"/>
</svg>
